<svg xmlns="http://www.w3.org/2000/svg" width="805" height="600"><rect width="805" height="600" x="0" y="0" fill="#FFFFFF" id="backgorund"/><g id="viz"><clipPath id="serieClipPath"><rect x="-50" y="-10" width="805" height="600"/></clipPath><g transform="translate(0,0)"><g transform="translate(50,10)" clip-path="url(#serieClipPath)"><g id="axis"><g transform="translate(0,522.5)" fill="none" font-size="10" font-family="sans-serif" text-anchor="middle"><path class="domain" stroke="currentColor" d="M0,6V0H740V6"/><g class="tick" opacity="1" transform="translate(0,0)"><line stroke="currentColor" y2="6"/><text fill="currentColor" y="9" dy="0.71em">0</text></g><g class="tick" opacity="1" transform="translate(56.92307692307693,0)"><line stroke="currentColor" y2="6"/><text fill="currentColor" y="9" dy="0.71em">5</text></g><g class="tick" opacity="1" transform="translate(113.84615384615385,0)"><line stroke="currentColor" y2="6"/><text fill="currentColor" y="9" dy="0.71em">10</text></g><g class="tick" opacity="1" transform="translate(170.76923076923077,0)"><line stroke="currentColor" y2="6"/><text fill="currentColor" y="9" dy="0.71em">15</text></g><g class="tick" opacity="1" transform="translate(227.6923076923077,0)"><line stroke="currentColor" y2="6"/><text fill="currentColor" y="9" dy="0.71em">20</text></g><g class="tick" opacity="1" transform="translate(284.61538461538464,0)"><line stroke="currentColor" y2="6"/><text fill="currentColor" y="9" dy="0.71em">25</text></g><g class="tick" opacity="1" transform="translate(341.53846153846155,0)"><line stroke="currentColor" y2="6"/><text fill="currentColor" y="9" dy="0.71em">30</text></g><g class="tick" opacity="1" transform="translate(398.46153846153845,0)"><line stroke="currentColor" y2="6"/><text fill="currentColor" y="9" dy="0.71em">35</text></g><g class="tick" opacity="1" transform="translate(455.3846153846154,0)"><line stroke="currentColor" y2="6"/><text fill="currentColor" y="9" dy="0.71em">40</text></g><g class="tick" opacity="1" transform="translate(512.3076923076923,0)"><line stroke="currentColor" y2="6"/><text fill="currentColor" y="9" dy="0.71em">45</text></g><g class="tick" opacity="1" transform="translate(569.2307692307693,0)"><line stroke="currentColor" y2="6"/><text fill="currentColor" y="9" dy="0.71em">50</text></g><g class="tick" opacity="1" transform="translate(626.1538461538462,0)"><line stroke="currentColor" y2="6"/><text fill="currentColor" y="9" dy="0.71em">55</text></g><g class="tick" opacity="1" transform="translate(683.0769230769231,0)"><line stroke="currentColor" y2="6"/><text fill="currentColor" y="9" dy="0.71em">60</text></g><g class="tick" opacity="1" transform="translate(740,0)"><line stroke="currentColor" y2="6"/><text fill="currentColor" y="9" dy="0.71em">65</text></g><text x="740" dy="-5" text-anchor="end" style="font-family: Arial, sans-serif; font-size: 12px; fill: rgb(123, 123, 123); font-weight: bold;">time</text></g><g transform="translate(0,0)" fill="none" font-size="10" font-family="sans-serif" text-anchor="end"><path class="domain" stroke="currentColor" d="M0,570V0"/><g class="tick" opacity="1" transform="translate(0,570)"><line stroke="currentColor" x2="-6"/><text fill="currentColor" x="-9" dy="0.32em">−1</text></g><g class="tick" opacity="1" transform="translate(0,522.5)"><line stroke="currentColor" x2="-6"/><text fill="currentColor" x="-9" dy="0.32em">0</text></g><g class="tick" opacity="1" transform="translate(0,475)"><line stroke="currentColor" x2="-6"/><text fill="currentColor" x="-9" dy="0.32em">1</text></g><g class="tick" opacity="1" transform="translate(0,427.5)"><line stroke="currentColor" x2="-6"/><text fill="currentColor" x="-9" dy="0.32em">2</text></g><g class="tick" opacity="1" transform="translate(0,380.00000000000006)"><line stroke="currentColor" x2="-6"/><text fill="currentColor" x="-9" dy="0.32em">3</text></g><g class="tick" opacity="1" transform="translate(0,332.49999999999994)"><line stroke="currentColor" x2="-6"/><text fill="currentColor" x="-9" dy="0.32em">4</text></g><g class="tick" opacity="1" transform="translate(0,285)"><line stroke="currentColor" x2="-6"/><text fill="currentColor" x="-9" dy="0.32em">5</text></g><g class="tick" opacity="1" transform="translate(0,237.49999999999997)"><line stroke="currentColor" x2="-6"/><text fill="currentColor" x="-9" dy="0.32em">6</text></g><g class="tick" opacity="1" transform="translate(0,190.00000000000003)"><line stroke="currentColor" x2="-6"/><text fill="currentColor" x="-9" dy="0.32em">7</text></g><g class="tick" opacity="1" transform="translate(0,142.5)"><line stroke="currentColor" x2="-6"/><text fill="currentColor" x="-9" dy="0.32em">8</text></g><g class="tick" opacity="1" transform="translate(0,94.99999999999999)"><line stroke="currentColor" x2="-6"/><text fill="currentColor" x="-9" dy="0.32em">9</text></g><g class="tick" opacity="1" transform="translate(0,47.50000000000002)"><line stroke="currentColor" x2="-6"/><text fill="currentColor" x="-9" dy="0.32em">10</text></g><g class="tick" opacity="1" transform="translate(0,0)"><line stroke="currentColor" x2="-6"/><text fill="currentColor" x="-9" dy="0.32em">11</text></g><text x="4" text-anchor="start" dominant-baseline="hanging" style="font-family: Arial, sans-serif; font-size: 12px; fill: rgb(123, 123, 123); font-weight: bold;">acceleration_x</text></g></g><g id="viz"><g><path d="M0,55.57500000000002C5.6923076923076925,55.57500000000002,5.6923076923076925,56.04999999999997,11.384615384615385,56.04999999999997C17.076923076923077,56.04999999999997,17.076923076923077,56.52499999999998,22.76923076923077,56.52499999999998C28.46153846153846,56.52499999999998,28.46153846153846,56.52499999999998,34.15384615384615,56.52499999999998C39.84615384615385,56.52499999999998,39.84615384615385,56.04999999999997,45.53846153846154,56.04999999999997C51.23076923076923,56.04999999999997,51.23076923076923,56.04999999999997,56.92307692307693,56.04999999999997C62.61538461538461,56.04999999999997,62.61538461538461,56.999999999999986,68.3076923076923,56.999999999999986C74,56.999999999999986,74,56.999999999999986,79.6923076923077,56.999999999999986C85.38461538461539,56.999999999999986,85.38461538461539,56.52499999999998,91.07692307692308,56.52499999999998C96.76923076923077,56.52499999999998,96.76923076923077,56.04999999999997,102.46153846153847,56.04999999999997C108.15384615384616,56.04999999999997,108.15384615384616,56.999999999999986,113.84615384615385,56.999999999999986C119.53846153846155,56.999999999999986,119.53846153846155,56.999999999999986,125.23076923076924,56.999999999999986C130.92307692307693,56.999999999999986,130.92307692307693,56.52499999999998,136.6153846153846,56.52499999999998C142.30769230769232,56.52499999999998,142.30769230769232,56.999999999999986,148,56.999999999999986C153.69230769230768,56.999999999999986,153.69230769230768,55.10000000000001,159.3846153846154,55.10000000000001C165.0769230769231,55.10000000000001,165.0769230769231,56.52499999999998,170.76923076923077,56.52499999999998C176.46153846153845,56.52499999999998,176.46153846153845,57.47500000000006,182.15384615384616,57.47500000000006C187.84615384615387,57.47500000000006,187.84615384615387,56.999999999999986,193.53846153846155,56.999999999999986C199.23076923076923,56.999999999999986,199.23076923076923,55.57500000000002,204.92307692307693,55.57500000000002C216.30769230769232,55.57500000000002,216.30769230769232,56.999999999999986,227.6923076923077,56.999999999999986C233.38461538461542,56.999999999999986,233.38461538461542,55.10000000000001,239.0769230769231,55.10000000000001C244.76923076923077,55.10000000000001,244.76923076923077,55.57500000000002,250.46153846153848,55.57500000000002C256.1538461538462,55.57500000000002,256.1538461538462,56.999999999999986,261.84615384615387,56.999999999999986C267.53846153846155,56.999999999999986,267.53846153846155,56.999999999999986,273.2307692307692,56.999999999999986C278.9230769230769,56.999999999999986,278.9230769230769,56.999999999999986,284.61538461538464,56.999999999999986C290.3076923076923,56.999999999999986,290.3076923076923,56.04999999999997,296,56.04999999999997C301.69230769230774,56.04999999999997,301.69230769230774,56.52499999999998,307.3846153846154,56.52499999999998C313.0769230769231,56.52499999999998,313.0769230769231,56.52499999999998,318.7692307692308,56.52499999999998C324.46153846153845,56.52499999999998,324.46153846153845,56.04999999999997,330.1538461538462,56.04999999999997C335.84615384615387,56.04999999999997,335.84615384615387,43.22499999999999,341.53846153846155,43.22499999999999C347.2307692307693,43.22499999999999,347.2307692307693,181.925,352.92307692307696,181.925C358.61538461538464,181.925,358.61538461538464,281.675,364.3076923076923,281.675C370,281.675,370,304.94999999999993,375.6923076923077,304.94999999999993C381.38461538461536,304.94999999999993,381.38461538461536,325.375,387.0769230769231,325.375C392.7692307692308,325.375,392.7692307692308,351.0250000000001,398.46153846153845,351.0250000000001C404.1538461538462,351.0250000000001,404.1538461538462,373.825,409.84615384615387,373.825C415.53846153846155,373.825,415.53846153846155,393.77500000000003,421.2307692307692,393.77500000000003C426.9230769230769,393.77500000000003,426.9230769230769,407.55000000000007,432.61538461538464,407.55000000000007C438.3076923076923,407.55000000000007,438.3076923076923,407.55000000000007,444,407.55000000000007C455.38461538461536,407.55000000000007,455.38461538461536,490.2,466.7692307692308,490.2C478.1538461538462,490.2,478.1538461538462,486.4,489.53846153846155,486.4C495.2307692307693,486.4,495.2307692307693,486.4,500.92307692307696,486.4C512.3076923076924,486.4,512.3076923076924,485.925,523.6923076923077,485.925C529.3846153846155,485.925,529.3846153846155,486.4,535.0769230769231,486.4C546.4615384615385,486.4,546.4615384615385,491.15000000000003,557.8461538461538,491.15000000000003C569.2307692307693,491.15000000000003,569.2307692307693,489.25000000000006,580.6153846153846,489.25000000000006C586.3076923076924,489.25000000000006,586.3076923076924,489.25000000000006,592,489.25000000000006C609.0769230769231,489.25000000000006,609.0769230769231,491.15000000000003,626.1538461538462,491.15000000000003C637.5384615384615,491.15000000000003,637.5384615384615,492.575,648.9230769230769,492.575C654.6153846153846,492.575,654.6153846153846,489.25000000000006,660.3076923076924,489.25000000000006C671.6923076923077,489.25000000000006,671.6923076923077,508.72499999999997,683.0769230769231,508.72499999999997C694.4615384615386,508.72499999999997,694.4615384615386,512.05,705.8461538461539,512.05C711.5384615384617,512.05,711.5384615384617,512.525,717.2307692307693,512.525C728.6153846153846,512.525,728.6153846153846,522.975,740,522.975" stroke="#1f77b4" fill="none"/><text font-family="sans-serif" font-size="10" class="labels" x="341.53846153846155" y="43.22499999999999" dx="0" dy="-4" text-anchor="middle"/></g></g></g><text y="4" x="4" style="font-family: Arial, sans-serif; font-size: 12px; fill: black; font-weight: bold; dominant-baseline: hanging;"/></g><g id="grid"><rect x="0" y="0" width="805" height="600" fill="none" stroke="#ccc"/></g></g></svg>