<svg xmlns="http://www.w3.org/2000/svg" width="805" height="600"><rect width="805" height="600" x="0" y="0" fill="#FFFFFF" id="backgorund"/><g id="viz"><clipPath id="serieClipPath"><rect x="-50" y="-30" width="805" height="600"/></clipPath><g transform="translate(0,0)"><g transform="translate(50,30)" clip-path="url(#serieClipPath)"><g id="axis"><g transform="translate(0,550)" fill="none" font-size="10" font-family="sans-serif" text-anchor="middle"><path class="domain" stroke="currentColor" d="M0,6V0H725V6"/><g class="tick" opacity="1" transform="translate(0,0)"><line stroke="currentColor" y2="6"/><text fill="currentColor" y="9" dy="0.71em">0</text></g><g class="tick" opacity="1" transform="translate(55.769230769230774,0)"><line stroke="currentColor" y2="6"/><text fill="currentColor" y="9" dy="0.71em">5</text></g><g class="tick" opacity="1" transform="translate(111.53846153846155,0)"><line stroke="currentColor" y2="6"/><text fill="currentColor" y="9" dy="0.71em">10</text></g><g class="tick" opacity="1" transform="translate(167.30769230769232,0)"><line stroke="currentColor" y2="6"/><text fill="currentColor" y="9" dy="0.71em">15</text></g><g class="tick" opacity="1" transform="translate(223.0769230769231,0)"><line stroke="currentColor" y2="6"/><text fill="currentColor" y="9" dy="0.71em">20</text></g><g class="tick" opacity="1" transform="translate(278.84615384615387,0)"><line stroke="currentColor" y2="6"/><text fill="currentColor" y="9" dy="0.71em">25</text></g><g class="tick" opacity="1" transform="translate(334.61538461538464,0)"><line stroke="currentColor" y2="6"/><text fill="currentColor" y="9" dy="0.71em">30</text></g><g class="tick" opacity="1" transform="translate(390.38461538461536,0)"><line stroke="currentColor" y2="6"/><text fill="currentColor" y="9" dy="0.71em">35</text></g><g class="tick" opacity="1" transform="translate(446.1538461538462,0)"><line stroke="currentColor" y2="6"/><text fill="currentColor" y="9" dy="0.71em">40</text></g><g class="tick" opacity="1" transform="translate(501.9230769230769,0)"><line stroke="currentColor" y2="6"/><text fill="currentColor" y="9" dy="0.71em">45</text></g><g class="tick" opacity="1" transform="translate(557.6923076923077,0)"><line stroke="currentColor" y2="6"/><text fill="currentColor" y="9" dy="0.71em">50</text></g><g class="tick" opacity="1" transform="translate(613.4615384615385,0)"><line stroke="currentColor" y2="6"/><text fill="currentColor" y="9" dy="0.71em">55</text></g><g class="tick" opacity="1" transform="translate(669.2307692307693,0)"><line stroke="currentColor" y2="6"/><text fill="currentColor" y="9" dy="0.71em">60</text></g><g class="tick" opacity="1" transform="translate(725,0)"><line stroke="currentColor" y2="6"/><text fill="currentColor" y="9" dy="0.71em">65</text></g><text x="725" dy="-5" text-anchor="end" style="font-family: Arial, sans-serif; font-size: 12px; fill: rgb(123, 123, 123); font-weight: bold;">time</text></g><g transform="translate(0,0)" fill="none" font-size="10" font-family="sans-serif" text-anchor="end"><path class="domain" stroke="currentColor" d="M0,550V0"/><g class="tick" opacity="1" transform="translate(0,550)"><line stroke="currentColor" x2="-6"/><text fill="currentColor" x="-9" dy="0.32em">19.88</text></g><g class="tick" opacity="1" transform="translate(0,495.00000000000097)"><line stroke="currentColor" x2="-6"/><text fill="currentColor" x="-9" dy="0.32em">19.90</text></g><g class="tick" opacity="1" transform="translate(0,439.9999999999922)"><line stroke="currentColor" x2="-6"/><text fill="currentColor" x="-9" dy="0.32em">19.92</text></g><g class="tick" opacity="1" transform="translate(0,384.9999999999931)"><line stroke="currentColor" x2="-6"/><text fill="currentColor" x="-9" dy="0.32em">19.94</text></g><g class="tick" opacity="1" transform="translate(0,329.99999999999415)"><line stroke="currentColor" x2="-6"/><text fill="currentColor" x="-9" dy="0.32em">19.96</text></g><g class="tick" opacity="1" transform="translate(0,274.9999999999951)"><line stroke="currentColor" x2="-6"/><text fill="currentColor" x="-9" dy="0.32em">19.98</text></g><g class="tick" opacity="1" transform="translate(0,219.9999999999961)"><line stroke="currentColor" x2="-6"/><text fill="currentColor" x="-9" dy="0.32em">20.00</text></g><g class="tick" opacity="1" transform="translate(0,164.9999999999971)"><line stroke="currentColor" x2="-6"/><text fill="currentColor" x="-9" dy="0.32em">20.02</text></g><g class="tick" opacity="1" transform="translate(0,109.99999999999802)"><line stroke="currentColor" x2="-6"/><text fill="currentColor" x="-9" dy="0.32em">20.04</text></g><g class="tick" opacity="1" transform="translate(0,54.99999999999901)"><line stroke="currentColor" x2="-6"/><text fill="currentColor" x="-9" dy="0.32em">20.06</text></g><g class="tick" opacity="1" transform="translate(0,0)"><line stroke="currentColor" x2="-6"/><text fill="currentColor" x="-9" dy="0.32em">20.08</text></g><text x="4" text-anchor="start" dominant-baseline="hanging" style="font-family: Arial, sans-serif; font-size: 12px; fill: rgb(123, 123, 123); font-weight: bold;">temperature</text></g></g><g id="viz"><g><path d="M0,495.00000000000097C3.7179487181876922,422.80781337397616,7.4358974363753845,350.61562674795124,11.153846153846155,329.99999999999415C14.871794871316926,309.38437325203705,18.589743588070778,340.3453063821475,22.30769230769231,357.4999999999985C26.025641027313842,374.65469361784955,29.743589749803043,378.0031477234409,33.46153846153846,384.9999999999931C37.17948717327388,391.9968522765453,40.8974358742555,402.64210272405813,44.61538461538462,412.49999999999756C48.33333335651374,422.357897275937,52.051282137790395,431.42844138030307,55.769230769230774,439.9999999999922C59.48717940067115,448.57155861968135,63.20512788227528,456.64413175469394,66.92307692307692,467.4999999999966C70.64102596387856,478.35586824529923,74.35897556387776,491.9950316008922,78.07692307692308,495.00000000000097C81.7948705899684,498.0049683991097,85.51281601605982,490.37574184173417,89.23076923076924,495.00000000000097C92.94872244547867,499.62425815826776,96.66668344880603,516.5020010321767,100.38461538461539,522.4999999999956C104.10254732042475,528.4979989678144,107.82045018871608,523.616254029543,111.53846153846155,522.4999999999956C115.25647288820701,521.3837459704481,118.97459271940662,524.0329828496247,122.6923076923077,522.4999999999956C126.41002266520877,520.9670171503665,130.1273327798113,515.2518145719314,133.84615384615384,522.4999999999956C137.56497491249638,529.7481854280597,141.2853069305789,549.9597588626231,145,550C148.7146930694211,550.0402411373769,152.42374719018085,529.9091499775678,156.15384615384616,522.4999999999956C159.88394511751147,515.0908500224233,163.6350889240823,520.4036412270875,167.30769230769232,522.4999999999956C170.98029569130233,524.5963587729036,174.5743586519516,523.4762851140556,178.46153846153848,522.4999999999956C182.34871827112536,521.5237148859355,186.5290149296499,520.6912183166629,189.6153846153846,522.4999999999956C192.70175430111934,524.3087816833282,194.69419701406423,528.758841619266,200.76923076923077,522.4999999999956C206.84426452439732,516.2411583807251,217.00188932178546,499.27341520624657,223.0769230769231,495.00000000000097C229.15195683206073,490.72658479375536,231.14439954494782,499.1474975557428,234.23076923076925,495.00000000000097C237.3171389165907,490.85250244425913,241.49743557534632,474.1365945707878,245.3846153846154,467.4999999999966C249.27179519388446,460.8634054292054,252.86585815366675,464.3061241610939,256.53846153846155,467.4999999999966C260.21106492325634,470.69387583889926,263.9622087330637,473.63890878481595,267.6923076923077,467.4999999999966C271.4224066515517,461.3610912151772,275.1314607602323,446.1382406996214,278.84615384615387,439.9999999999922C282.56084693207544,433.861759300363,286.28117899523806,436.80812841666057,290,439.9999999999922C293.71882100476194,443.19187158332386,297.4361309511231,446.62924563368995,301.1538461538462,439.9999999999922C304.87156135656926,433.3707543662945,308.58968181565433,416.67488904853286,312.3076923076923,412.49999999999756C316.0257027997303,408.32511095146225,319.7436033247214,416.6711981721532,323.46153846153845,412.49999999999756C327.1794735983555,408.3288018278419,330.8974433469985,391.6403182628398,334.61538461538464,384.9999999999931C338.3333258837708,378.35968173714645,342.0512386719002,381.76752877645544,345.7692307692308,384.9999999999931C349.48722286656135,388.2324712235308,353.2052942730928,391.28956663129725,356.92307692307696,384.9999999999931C360.6408595730611,378.710433368689,364.3583534664979,363.07420469831436,368.07692307692304,357.4999999999985C371.7954926873482,351.9257953016827,375.5151380147617,356.4136145754258,379.2307692307692,357.4999999999985C382.94640044677675,358.58638542457123,386.6580175513783,356.27133699997376,390.38461538461536,357.4999999999985C394.1112132178524,358.7286630000233,397.85279177972484,363.50103742467036,401.53846153846155,357.4999999999985C405.22413129719826,351.4989625753267,408.8538922527993,334.7245133013361,412.6923076923077,329.99999999999415C416.53072313181605,325.2754866986522,420.5777930552313,332.60090936995874,423.84615384615387,329.99999999999415C427.1145146370764,327.39909063002955,429.60416629550633,314.8718492187936,435,302.49999999999955C440.39583370449367,290.1281507812055,448.69784945505063,277.9116937548531,457.3076923076923,274.9999999999951C465.917535160334,272.0883062451371,474.8352051150601,278.4813757617734,479.6153846153846,274.9999999999951C484.3955641157091,271.51862423821683,485.0382531616316,258.162803198024,490.7692307692308,247.50000000000045C496.50020837682996,236.83719680197694,507.3194745461053,228.8674114461226,513.0769230769231,219.9999999999961C518.8343716077409,211.13258855386962,519.5300025001013,201.36755101747104,524.2307692307692,192.49999999999167C528.931535961437,183.6324489825123,537.6374385304123,175.6623844839521,546.5384615384615,164.9999999999971C555.4394845465108,154.3376155160421,564.5356279936337,140.98291104669227,568.8461538461538,137.49999999999267C573.1566796986739,134.01708895329307,572.681587956591,140.40597132924373,580,137.49999999999267C587.318412043409,134.5940286707416,602.4303278723094,122.39320363628887,613.4615384615385,109.99999999999802C624.4927490507675,97.60679636370718,631.4432544003253,85.02121412557815,635.7692307692307,82.49999999999366C640.0952071381362,79.97878587440917,641.7966545263896,87.52193986136923,646.9230769230769,82.49999999999366C652.0494993197642,77.47806013861809,660.6008967248853,59.891026428906926,669.2307692307693,54.99999999999901C677.8606417366533,50.1089735710911,686.5689893433001,57.91395442298639,691.5384615384615,54.99999999999901C696.507933733623,52.08604557701163,697.7385305172988,38.45315587914159,702.6923076923077,27.49999999999465C707.6460848673166,16.546844120847705,716.3230424336583,8.273422060423853,725,0" stroke="#1f77b4" fill="none"/><g><circle class="dot" cx="0" cy="495.00000000000097" r="1.5" fill="#1f77b4"/><circle class="dot" cx="11.153846153846155" cy="329.99999999999415" r="1.5" fill="#1f77b4"/><circle class="dot" cx="22.30769230769231" cy="357.4999999999985" r="1.5" fill="#1f77b4"/><circle class="dot" cx="33.46153846153846" cy="384.9999999999931" r="1.5" fill="#1f77b4"/><circle class="dot" cx="44.61538461538462" cy="412.49999999999756" r="1.5" fill="#1f77b4"/><circle class="dot" cx="55.769230769230774" cy="439.9999999999922" r="1.5" fill="#1f77b4"/><circle class="dot" cx="66.92307692307692" cy="467.4999999999966" r="1.5" fill="#1f77b4"/><circle class="dot" cx="78.07692307692308" cy="495.00000000000097" r="1.5" fill="#1f77b4"/><circle class="dot" cx="89.23076923076924" cy="495.00000000000097" r="1.5" fill="#1f77b4"/><circle class="dot" cx="100.38461538461539" cy="522.4999999999956" r="1.5" fill="#1f77b4"/><circle class="dot" cx="111.53846153846155" cy="522.4999999999956" r="1.5" fill="#1f77b4"/><circle class="dot" cx="122.6923076923077" cy="522.4999999999956" r="1.5" fill="#1f77b4"/><circle class="dot" cx="133.84615384615384" cy="522.4999999999956" r="1.5" fill="#1f77b4"/><circle class="dot" cx="145" cy="550" r="1.5" fill="#1f77b4"/><circle class="dot" cx="156.15384615384616" cy="522.4999999999956" r="1.5" fill="#1f77b4"/><circle class="dot" cx="167.30769230769232" cy="522.4999999999956" r="1.5" fill="#1f77b4"/><circle class="dot" cx="178.46153846153848" cy="522.4999999999956" r="1.5" fill="#1f77b4"/><circle class="dot" cx="189.6153846153846" cy="522.4999999999956" r="1.5" fill="#1f77b4"/><circle class="dot" cx="200.76923076923077" cy="522.4999999999956" r="1.5" fill="#1f77b4"/><circle class="dot" cx="223.0769230769231" cy="495.00000000000097" r="1.5" fill="#1f77b4"/><circle class="dot" cx="234.23076923076925" cy="495.00000000000097" r="1.5" fill="#1f77b4"/><circle class="dot" cx="245.3846153846154" cy="467.4999999999966" r="1.5" fill="#1f77b4"/><circle class="dot" cx="256.53846153846155" cy="467.4999999999966" r="1.5" fill="#1f77b4"/><circle class="dot" cx="267.6923076923077" cy="467.4999999999966" r="1.5" fill="#1f77b4"/><circle class="dot" cx="278.84615384615387" cy="439.9999999999922" r="1.5" fill="#1f77b4"/><circle class="dot" cx="290" cy="439.9999999999922" r="1.5" fill="#1f77b4"/><circle class="dot" cx="301.1538461538462" cy="439.9999999999922" r="1.5" fill="#1f77b4"/><circle class="dot" cx="312.3076923076923" cy="412.49999999999756" r="1.5" fill="#1f77b4"/><circle class="dot" cx="323.46153846153845" cy="412.49999999999756" r="1.5" fill="#1f77b4"/><circle class="dot" cx="334.61538461538464" cy="384.9999999999931" r="1.5" fill="#1f77b4"/><circle class="dot" cx="345.7692307692308" cy="384.9999999999931" r="1.5" fill="#1f77b4"/><circle class="dot" cx="356.92307692307696" cy="384.9999999999931" r="1.5" fill="#1f77b4"/><circle class="dot" cx="368.07692307692304" cy="357.4999999999985" r="1.5" fill="#1f77b4"/><circle class="dot" cx="379.2307692307692" cy="357.4999999999985" r="1.5" fill="#1f77b4"/><circle class="dot" cx="390.38461538461536" cy="357.4999999999985" r="1.5" fill="#1f77b4"/><circle class="dot" cx="401.53846153846155" cy="357.4999999999985" r="1.5" fill="#1f77b4"/><circle class="dot" cx="412.6923076923077" cy="329.99999999999415" r="1.5" fill="#1f77b4"/><circle class="dot" cx="423.84615384615387" cy="329.99999999999415" r="1.5" fill="#1f77b4"/><circle class="dot" cx="435" cy="302.49999999999955" r="1.5" fill="#1f77b4"/><circle class="dot" cx="457.3076923076923" cy="274.9999999999951" r="1.5" fill="#1f77b4"/><circle class="dot" cx="479.6153846153846" cy="274.9999999999951" r="1.5" fill="#1f77b4"/><circle class="dot" cx="490.7692307692308" cy="247.50000000000045" r="1.5" fill="#1f77b4"/><circle class="dot" cx="513.0769230769231" cy="219.9999999999961" r="1.5" fill="#1f77b4"/><circle class="dot" cx="524.2307692307692" cy="192.49999999999167" r="1.5" fill="#1f77b4"/><circle class="dot" cx="546.5384615384615" cy="164.9999999999971" r="1.5" fill="#1f77b4"/><circle class="dot" cx="568.8461538461538" cy="137.49999999999267" r="1.5" fill="#1f77b4"/><circle class="dot" cx="580" cy="137.49999999999267" r="1.5" fill="#1f77b4"/><circle class="dot" cx="613.4615384615385" cy="109.99999999999802" r="1.5" fill="#1f77b4"/><circle class="dot" cx="635.7692307692307" cy="82.49999999999366" r="1.5" fill="#1f77b4"/><circle class="dot" cx="646.9230769230769" cy="82.49999999999366" r="1.5" fill="#1f77b4"/><circle class="dot" cx="669.2307692307693" cy="54.99999999999901" r="1.5" fill="#1f77b4"/><circle class="dot" cx="691.5384615384615" cy="54.99999999999901" r="1.5" fill="#1f77b4"/><circle class="dot" cx="702.6923076923077" cy="27.49999999999465" r="1.5" fill="#1f77b4"/><circle class="dot" cx="725" cy="0" r="1.5" fill="#1f77b4"/></g><text font-family="sans-serif" font-size="10" class="labels" x="725" y="0" dx="0" dy="-4" text-anchor="middle"/></g></g></g><text y="4" x="4" style="font-family: Arial, sans-serif; font-size: 12px; fill: black; font-weight: bold; dominant-baseline: hanging;"/></g><g id="grid"><rect x="0" y="0" width="805" height="600" fill="none" stroke="#ccc"/></g></g></svg>